<?xml version="1.0" encoding="UTF-8"?><svg id="Layer_1" xmlns="http://www.w3.org/2000/svg" viewBox="0 0 6000 4000"><defs><style>.cls-1{fill:#fff;}</style></defs><path class="cls-1" d="m2999.6,3459.26c-415.52,0-831.04-1.2-1246.55.77-116.51.55-229.88-94.95-229.74-230.81.81-786.77.37-1573.54.42-2360.32,0-115.15,74.22-205.24,186.88-227.66,14.65-2.92,29.37-2.44,44.08-2.46,111.87-.12,223.74-.05,335.61-.08,24.59,0,24.75-.14,24.77-24.51.06-64.54-.07-129.08.07-193.62.09-41.71,10.46-79.33,45.52-105.88,38.76-29.35,81.17-34.77,124.85-13.52,43,20.92,65.39,57.31,66.13,104.95,1.09,70.06.85,140.15-.06,210.21-.24,18.02,5.64,22.73,23.14,22.72,399.53-.43,799.07-.47,1198.6.08,19.36.03,23.59-6.28,23.33-24.34-.96-68.83-.5-137.68-.34-206.52.15-66.93,51.42-119.18,116.79-119.38,65.3-.19,117.63,52.15,117.93,118.62.32,68.84.07,137.69.09,206.53q.01,24.6,24.04,24.66c130.92.02,261.85-.11,392.77.05,115.81.15,206.52,75.98,226.58,189.5,2.01,11.4,2.05,23.24,2.05,34.88.09,790.46.13,1580.93.03,2371.39-.02,125.32-99.49,224.62-224.94,224.67-417.36.14-834.72.05-1252.08.05Zm1.17-1977.19c-424.11,0-848.21,0-1272.32,0-25.03,0-25.1.06-25.11,23.69-.01,539.66-.01,1079.32,0,1618.98,0,17.88,1.5,35.68,6.26,52.9,19.3,69.72,78.93,112.9,156.5,112.9,764.62.08,1529.24.08,2293.85,0,84.57,0,137.13-52.79,137.14-137.03.02-547.65.01-1095.3,0-1642.95q0-28.49-29.56-28.5c-422.26,0-844.52,0-1266.78,0Zm595.53-683.58c-54.63,42.73-73.5,125.71-46.83,195.58,27.81,72.88,99.47,115.61,184.03,109.74,70.59-4.9,134.51-62.09,152.19-135.5,15.58-64.71-11.44-138.54-54.61-167.81,0,42.64.14,84.27-.03,125.9-.27,68.35-51.26,120.66-117.41,120.68-66.28.02-117.1-52.08-117.31-120.46-.13-41.68-.02-83.36-.02-128.13Zm-1479.17.43c-44.47,32.22-67.56,98.74-57.19,159.09,12.84,74.77,70.92,132.63,145.41,144.89,73.62,12.12,147.12-23.68,183.41-89.34,35.93-65,26.61-147.51-23.05-202.62-3-3.33-5.24-9.93-11.19-7.05-4.27,2.07-2.49,7.76-2.5,11.87-.13,37.46.23,74.93-.18,112.39-.75,67.73-52.8,119.32-119.5,118.93-65.16-.38-114.72-51.14-115.15-118.32-.27-42.33-.05-84.65-.05-129.84Z"/><path class="cls-1" d="m2736.59,1671.72c35.65,0,71.3-.17,106.94.04,42.32.25,70.62,25.49,71.42,67.85,1.39,73.11,1.3,146.28.08,219.4-.72,43.06-29.07,68.63-72.68,68.78-70.68.24-141.36.25-212.04,0-42.19-.15-70.38-23.26-71.67-65.4-2.31-75.52-2.26-151.19-.15-226.72,1.13-40.52,29.94-63.69,71.16-63.91,35.65-.19,71.29-.04,106.94-.04Z"/><path class="cls-1" d="m2736.92,2744.71c35.64,0,71.28-.18,106.92.04,42.12.27,69.9,24.05,70.89,65.96,1.74,74.31,1.6,148.71.15,223.03-.78,40.1-28.67,66.21-69.15,66.72-72.5.92-145.02.81-217.53.06-40.15-.42-68.09-24-69.37-64.09-2.43-76.1-2.41-152.38-.2-228.5,1.17-40.4,29.05-62.88,69.53-63.17,36.25-.26,72.51-.06,108.77-.06Z"/><path class="cls-1" d="m2735.68,2552.14c-35.63,0-71.26.14-106.89-.04-41.95-.22-69.6-23.92-70.62-66.05-1.77-73.67-1.75-147.44-.05-221.11,1-43.12,29.67-68.38,73.22-68.66,70.03-.44,140.06-.46,210.09,0,45.81.3,73.59,28.02,73.92,73.86.49,69.41.54,138.84-.02,208.25-.39,48.12-26.78,73.61-74.61,73.74-35.02.09-70.03.02-105.05.01Z"/><path class="cls-1" d="m3614.8,2377.03c0-36.87-.24-73.74.08-110.6.34-38.77,27.17-66.75,65.84-67.06,74.96-.61,149.93-.63,224.88.04,36.52.33,64.64,27.78,65.08,64.35.89,75.57.87,151.16,0,226.72-.41,35.98-29.08,64.15-65.18,64.51-74.95.74-149.93.74-224.88.03-38.43-.36-65.19-28.86-65.81-67.39-.02-1.23-.02-2.46-.02-3.69,0-35.64,0-71.28,0-106.91Z"/><path class="cls-1" d="m3971.22,2922.85c0,36.86.24,73.72-.07,110.58-.33,39.32-26.33,66.79-65.53,67.17-74.33.73-148.68.73-223.01,0-38.42-.38-66.61-27.88-67.16-66.66-1.04-74.32-1.14-148.68.08-223,.65-39.53,29.67-65.94,69.36-66.11,73.11-.31,146.22-.36,219.32.03,40.16.21,66.62,27.17,66.93,67.4.29,36.86.06,73.72.06,110.58Z"/><path class="cls-1" d="m2385.67,2378.18c0,36.86.29,73.73-.08,110.58-.38,38.16-26.36,65.76-64.59,66.19-74.94.85-149.91.85-224.85,0-37.48-.42-65.55-27.81-66.14-65.69-1.17-74.93-1.28-149.91.08-224.84.7-38.69,29.76-64.98,68.35-65.17,73.72-.36,147.45-.41,221.17.03,39.07.24,65.63,27.34,65.99,66.46.35,37.47.07,74.95.07,112.43Z"/><path class="cls-1" d="m3087.15,1849.33c.01-36.86-.27-73.72.08-110.58.38-40,27.1-66.72,67.45-66.91,73.1-.35,146.21-.35,219.31,0,39.51.19,68.36,27.03,68.93,66.55,1.06,74.32,1.07,148.67-.01,222.99-.56,38.62-28.93,65.87-67.54,66.23-73.71.69-147.44.62-221.15.06-39.92-.3-66.42-27.89-67.06-67.76-.02-1.23-.02-2.46-.02-3.69,0-35.63,0-71.26,0-106.89Z"/><path class="cls-1" d="m3614.79,1849.94c.01-36.86-.23-73.73.08-110.58.33-39.65,27.4-67.22,67.33-67.47,73.72-.47,147.45-.47,221.17,0,39.56.26,67.2,27.92,67.5,67.73.54,73.11.48,146.22.04,219.33-.25,40.08-28.74,68.54-68.72,68.77-73.11.42-146.22.46-219.33-.02-40.73-.27-67.55-28.06-68.02-69.01-.21-18.43-.05-36.86-.05-55.29,0-17.82,0-35.63,0-53.45Z"/><path class="cls-1" d="m3087.16,2375.79c0-36.25-.25-72.49.06-108.74.34-40.45,26.64-67.56,66.59-67.78,73.72-.41,147.44-.4,221.16,0,38.38.21,67.27,27.01,67.88,65.65,1.18,74.93,1.22,149.9-.04,224.83-.65,38.46-29.5,65.03-68.41,65.32-73.72.56-147.44.62-221.15-.04-38.93-.35-65.63-28.04-66.01-66.83-.37-37.47-.08-74.95-.08-112.42Z"/><path class="cls-1" d="m2208.7,2744.71c36.24,0,72.48-.24,108.72.07,42.25.36,68.04,25.83,68.19,67.64.26,73.09.23,146.19.01,219.28-.12,39.85-25.95,67.99-66.26,68.63-73.69,1.18-147.42,1.18-221.11.01-41.66-.66-68.31-29.29-68.59-71.18-.48-71.25-.55-142.5.02-213.75.35-43.77,28.2-70.45,72.14-70.67,35.62-.18,71.25-.04,106.87-.03Z"/><path class="cls-1" d="m3087.15,2922.21c0-36.85-.27-73.7.08-110.54.38-40.42,26.54-66.64,67.23-66.84,73.08-.36,146.17-.29,219.25-.03,39.69.14,68.56,26.4,69.18,65.88,1.15,74.29,1.03,148.62.08,222.92-.49,38.34-27.9,65.98-67.23,66.66-74.29,1.29-148.63,1.29-222.91.01-39.67-.68-65.36-29.52-65.62-69.35-.24-36.23-.05-72.47-.05-108.7Z"/></svg>