<?xml version="1.0" encoding="UTF-8"?><svg id="a" xmlns="http://www.w3.org/2000/svg" width="27.87" height="29.94" xmlns:xlink="http://www.w3.org/1999/xlink" viewBox="0 0 27.87 29.94"><defs><clipPath id="c"><rect x="0" y=".01" width="27.87" height="29.93" fill="none" stroke-width="0"/></clipPath></defs><g id="b"><g clip-path="url(#c)"><g id="d"><path id="e" d="m13.93,29.94c-3.92,0-7.84-.01-11.76,0C.97,29.94,0,28.96,0,27.77,0,20.34,0,12.92,0,5.49c-.03-1.06.73-1.97,1.77-2.15.14-.02.28-.03.42-.03h3.17c.23,0,.23,0,.23-.23v-1.83c-.03-.38.13-.76.43-1,.33-.28.8-.33,1.18-.12.39.17.63.56.62.99.01.66,0,1.32,0,1.98,0,.17.05.21.22.21,3.77,0,7.54,0,11.31,0,.18,0,.22-.06.22-.23,0-.65,0-1.3,0-1.95-.02-.61.46-1.12,1.07-1.14.61-.02,1.12.46,1.14,1.07,0,.02,0,.04,0,.07v1.95c0,.23,0,.23.23.23,1.24,0,2.47,0,3.71,0,1.06-.03,1.98.74,2.14,1.79.02.11.02.22.02.33,0,7.46,0,14.92,0,22.38,0,1.16-.93,2.11-2.09,2.12,0,0-.02,0-.03,0h-11.81m.01-18.66H1.94c-.24,0-.24,0-.24.22v15.28c0,.17.02.34.06.5.18.66.8,1.1,1.48,1.07h21.65c.66.05,1.24-.44,1.29-1.1,0-.06,0-.13,0-.19v-15.5q0-.27-.28-.27h-11.95m5.62-6.45c-.52.46-.7,1.2-.44,1.85.34.86,1.31,1.27,2.17.93.51-.2.88-.64,1-1.17.14-.58-.06-1.2-.51-1.58v1.19c.02.61-.46,1.12-1.07,1.14-.61.02-1.12-.46-1.14-1.07,0-.02,0-.04,0-.07v-1.21m-13.96,0c-.44.37-.64.94-.54,1.5.16.91,1.02,1.52,1.92,1.36.91-.16,1.52-1.02,1.36-1.92-.05-.31-.19-.59-.39-.82-.03-.03-.05-.09-.11-.07-.04.02-.02.07-.02.11v1.06c0,.61-.49,1.12-1.1,1.12,0,0-.02,0-.03,0-.6,0-1.09-.48-1.09-1.08,0-.01,0-.02,0-.03v-1.22" fill="#fff" stroke-width="0"/><path id="f" d="m11.45,13.07h1.01c.34-.03.64.22.67.57,0,.02,0,.05,0,.07.01.69.01,1.38,0,2.07.01.35-.25.64-.6.65-.03,0-.06,0-.09,0h-2c-.33.04-.64-.2-.67-.54,0-.03,0-.05,0-.08-.02-.71-.02-1.43,0-2.14,0-.34.28-.61.61-.6.02,0,.04,0,.06,0h1.01" fill="#fff" stroke-width="0"/><path id="g" d="m11.45,23.19h1.01c.33-.03.63.21.67.54,0,.03,0,.05,0,.08.02.7.02,1.4,0,2.1,0,.34-.26.62-.6.63-.02,0-.03,0-.05,0-.68,0-1.37,0-2.05,0-.33.03-.62-.21-.65-.54,0-.02,0-.04,0-.06-.02-.72-.02-1.44,0-2.16,0-.33.26-.6.58-.6.02,0,.05,0,.07,0h1.03" fill="#fff" stroke-width="0"/><path id="h" d="m11.44,21.38h-1.01c-.33.03-.63-.21-.66-.54,0-.03,0-.05,0-.08-.02-.7-.02-1.39,0-2.09-.01-.35.26-.64.61-.65.03,0,.05,0,.08,0,.66,0,1.32,0,1.98,0,.36-.03.67.23.7.59,0,.04,0,.07,0,.11,0,.66,0,1.31,0,1.96.04.35-.21.66-.56.7-.05,0-.1,0-.14,0h-.99" fill="#fff" stroke-width="0"/><path id="i" d="m19.74,19.72v-1.04c-.01-.34.25-.62.58-.63.01,0,.03,0,.04,0,.71,0,1.41,0,2.12,0,.33,0,.61.26.61.6h0c0,.72,0,1.43,0,2.15,0,.34-.28.61-.61.61-.71,0-1.41,0-2.12,0-.34,0-.62-.27-.62-.61,0,0,0-.02,0-.03v-1.04" fill="#fff" stroke-width="0"/><path id="j" d="m23.1,24.87v1.04c.02.33-.23.61-.56.63-.02,0-.04,0-.05,0-.7,0-1.4,0-2.1,0-.34,0-.62-.26-.63-.6,0,0,0-.02,0-.03-.01-.7-.01-1.4,0-2.1,0-.34.27-.62.61-.62.01,0,.03,0,.04,0h2.07c.33-.02.61.24.63.57,0,.02,0,.05,0,.07v1.04" fill="#fff" stroke-width="0"/><path id="k" d="m8.14,19.73v1.04c.01.33-.24.61-.57.62-.01,0-.02,0-.03,0-.71,0-1.41,0-2.12,0-.34,0-.62-.26-.62-.6,0,0,0-.01,0-.02-.01-.71-.01-1.42,0-2.12,0-.34.27-.62.61-.62.01,0,.02,0,.03,0,.7,0,1.39,0,2.09,0,.33-.01.61.24.62.58,0,.02,0,.03,0,.05v1.06" fill="#fff" stroke-width="0"/><path id="l" d="m14.76,14.74v-1.04c-.02-.33.24-.61.57-.63.02,0,.05,0,.07,0h2.07c.34-.02.63.25.65.59,0,.01,0,.03,0,.04.01.7.01,1.4,0,2.1,0,.34-.27.62-.61.63,0,0-.02,0-.03,0-.7,0-1.39,0-2.09,0-.34.01-.62-.25-.63-.59,0-.02,0-.03,0-.05v-.04c0-.33,0-.67,0-1.01" fill="#fff" stroke-width="0"/><path id="m" d="m19.74,14.75v-1.04c-.02-.34.25-.62.58-.64.02,0,.04,0,.05,0,.7,0,1.39,0,2.09,0,.34-.01.62.25.64.59,0,.02,0,.03,0,.05,0,.69,0,1.38,0,2.07.01.35-.26.64-.61.65-.01,0-.03,0-.04,0-.69,0-1.38,0-2.07,0-.34.01-.63-.25-.64-.59,0-.02,0-.04,0-.06v-1.02" fill="#fff" stroke-width="0"/><path id="n" d="m14.76,19.71v-1.03c-.02-.33.23-.62.56-.64.02,0,.05,0,.07,0,.7,0,1.39,0,2.09,0,.34-.01.63.25.64.59,0,0,0,.02,0,.03.01.71.01,1.41,0,2.12,0,.34-.28.62-.62.62,0,0-.02,0-.03,0-.7,0-1.39,0-2.09,0-.33,0-.61-.25-.62-.59,0-.01,0-.03,0-.04v-1.06" fill="#fff" stroke-width="0"/><path id="o" d="m6.47,23.19h1.03c.33-.02.62.22.64.55,0,.03,0,.06,0,.08,0,.69,0,1.38,0,2.07.02.34-.23.62-.57.65-.02,0-.04,0-.06,0-.7.01-1.39.01-2.09,0-.35.01-.64-.26-.65-.61,0-.02,0-.04,0-.06,0-.67,0-1.34,0-2.02-.02-.35.24-.65.59-.67.03,0,.06,0,.09,0h1.01" fill="#fff" stroke-width="0"/><path id="p" d="m14.76,24.87v-1.04c-.02-.33.24-.61.57-.63.02,0,.04,0,.07,0,.69,0,1.38,0,2.07,0,.34-.02.63.24.65.58,0,.01,0,.03,0,.04.01.7.01,1.4,0,2.1,0,.34-.26.62-.6.63,0,0-.02,0-.03,0-.7.01-1.4.01-2.1,0-.34,0-.62-.27-.62-.61,0-.01,0-.03,0-.04v-1.03" fill="#fff" stroke-width="0"/></g></g></g></svg>