<?xml version="1.0" encoding="UTF-8"?><svg id="a" xmlns="http://www.w3.org/2000/svg" width="27.88" height="29.95" xmlns:xlink="http://www.w3.org/1999/xlink" viewBox="0 0 27.88 29.95"><defs><clipPath id="c"><rect x="0" y=".02" width="27.87" height="29.93" fill="none" stroke-width="0"/></clipPath></defs><g id="b"><g clip-path="url(#c)"><g id="d"><path id="e" d="m13.93,29.95c-3.92,0-7.84-.01-11.76,0C.97,29.95,0,28.97,0,27.78V5.5c-.03-1.06.73-1.97,1.77-2.15.14-.02.28-.03.42-.03h3.17q.23,0,.23-.23v-1.83c-.03-.38.13-.76.43-1,.33-.28.8-.33,1.18-.12.39.17.63.56.62.99.01.66,0,1.32,0,1.98,0,.17.05.21.22.21h11.31c.18,0,.22-.06.22-.23v-1.95c-.02-.61.46-1.12,1.07-1.14.61-.02,1.12.46,1.14,1.07v2.02q0,.23.23.23h3.71c1.06-.03,1.98.74,2.14,1.79.02.11.02.22.02.33v22.38c0,1.16-.93,2.11-2.09,2.12h-11.84m.01-18.66H1.94q-.24,0-.24.22v15.28c0,.17.02.34.06.5.18.66.8,1.1,1.48,1.07h21.65c.66.05,1.24-.44,1.29-1.1v-15.69c0-.18-.09-.27-.28-.27h-11.95m5.62-6.45c-.52.46-.7,1.2-.44,1.85.34.86,1.31,1.27,2.17.93.51-.2.88-.64,1-1.17.14-.58-.06-1.2-.51-1.58v1.19c.02.61-.46,1.12-1.07,1.14s-1.12-.46-1.14-1.07v-1.28m-13.96,0c-.44.37-.64.94-.54,1.5.16.91,1.02,1.52,1.92,1.36.91-.16,1.52-1.02,1.36-1.92-.05-.31-.19-.59-.39-.82-.03-.03-.05-.09-.11-.07-.04.02-.02.07-.02.11v1.06c0,.61-.49,1.12-1.1,1.12h-.03c-.6,0-1.09-.48-1.09-1.08v-1.25" fill="#f4c55c" stroke-width="0"/><path id="f" d="m11.45,13.08h1.01c.34-.03.64.22.67.57v.07c.01.69.01,1.38,0,2.07.01.35-.25.64-.6.65h-2.09c-.33.04-.64-.2-.67-.54v-.08c-.02-.71-.02-1.43,0-2.14,0-.34.28-.61.61-.6h1.07" fill="#f4c55c" stroke-width="0"/><path id="g" d="m11.45,23.2h1.01c.33-.03.63.21.67.54v.08c.02.7.02,1.4,0,2.1,0,.34-.26.62-.6.63h-2.1c-.33.03-.62-.21-.65-.54v-.06c-.02-.72-.02-1.44,0-2.16,0-.33.26-.6.58-.6h1.1" fill="#f4c55c" stroke-width="0"/><path id="h" d="m11.44,21.39h-1.01c-.33.03-.63-.21-.66-.54v-.08c-.02-.7-.02-1.39,0-2.09-.01-.35.26-.64.61-.65h2.06c.36-.03.67.23.7.59v2.07c.04.35-.21.66-.56.7h-1.13" fill="#f4c55c" stroke-width="0"/><path id="i" d="m19.74,19.73v-1.04c-.01-.34.25-.62.58-.63h2.16c.33,0,.61.26.61.6h0v2.15c0,.34-.28.61-.61.61h-2.12c-.34,0-.62-.27-.62-.61v-1.07" fill="#f4c55c" stroke-width="0"/><path id="j" d="m23.1,24.88v1.04c.02.33-.23.61-.56.63h-2.15c-.34,0-.62-.26-.63-.6v-.03c-.01-.7-.01-1.4,0-2.1,0-.34.27-.62.61-.62h2.11c.33-.02.61.24.63.57v1.11" fill="#f4c55c" stroke-width="0"/><path id="k" d="m8.14,19.74v1.04c.01.33-.24.61-.57.62h-2.15c-.34,0-.62-.26-.62-.6v-.02c-.01-.71-.01-1.42,0-2.12,0-.34.27-.62.61-.62h2.12c.33-.01.61.24.62.58v1.11" fill="#f4c55c" stroke-width="0"/><path id="l" d="m14.76,14.75v-1.04c-.02-.33.24-.61.57-.63h2.14c.34-.02.63.25.65.59v.04c.01.7.01,1.4,0,2.1,0,.34-.27.62-.61.63h-2.12c-.34.01-.62-.25-.63-.59v-1.1" fill="#f4c55c" stroke-width="0"/><path id="m" d="m19.74,14.76v-1.04c-.02-.34.25-.62.58-.64h2.14c.34-.01.62.25.64.59v2.12c.01.35-.26.64-.61.65h-2.11c-.34.01-.63-.25-.64-.59v-1.08" fill="#f4c55c" stroke-width="0"/><path id="n" d="m14.76,19.72v-1.03c-.02-.33.23-.62.56-.64h2.16c.34-.01.63.25.64.59v.03c.01.71.01,1.41,0,2.12,0,.34-.28.62-.62.62h-2.12c-.33,0-.61-.25-.62-.59v-1.1" fill="#f4c55c" stroke-width="0"/><path id="o" d="m6.47,23.2h1.03c.33-.02.62.22.64.55v2.15c.02.34-.23.62-.57.65h-.06c-.7.01-1.39.01-2.09,0-.35.01-.64-.26-.65-.61v-2.08c-.02-.35.24-.65.59-.67h1.1" fill="#f4c55c" stroke-width="0"/><path id="p" d="m14.76,24.88v-1.04c-.02-.33.24-.61.57-.63h2.14c.34-.02.63.24.65.58v.04c.01.7.01,1.4,0,2.1,0,.34-.26.62-.6.63h-.03c-.7.01-1.4.01-2.1,0-.34,0-.62-.27-.62-.61v-1.07" fill="#f4c55c" stroke-width="0"/></g></g></g></svg>