<?xml version="1.0" encoding="UTF-8"?><svg id="a" xmlns="http://www.w3.org/2000/svg" width="31.25" height="31.25" viewBox="0 0 31.25 31.25"><g id="b"><path id="c" d="m24.97,17.52v1.96c0,1.15-.94,2.09-2.09,2.09h-14.52c-1.15,0-2.08-.94-2.09-2.09v-1.96h0c.02-.55.47-.98,1.02-.96.52.02.94.44.96.96h0v1.59c0,.26.21.47.47.47h13.78c.26,0,.47-.21.47-.47v-1.59h0c.02-.55.47-.98,1.02-.96.52.02.94.44.96.96h.01Z" fill="#fff" fill-rule="evenodd" stroke-width="0"/><path id="d" d="m15.62,7.33h0c.55,0,.99.44.99.99v7.03c0,.55-.45.99-1,.99-.55,0-.99-.44-.99-.99v-7.03c0-.55.44-.99.99-.99" fill="#fff" fill-rule="evenodd" stroke-width="0"/><path id="e" d="m20.12,12.74h0c.38.39.38,1.01,0,1.4l-3.77,3.77s-.02.02-.02.02c-.18.18-.42.28-.68.29,0,0-.01,0-.02,0h0s-.01,0-.02,0c-.25,0-.5-.11-.68-.29,0,0-.02-.02-.02-.02-1.26-1.25-2.51-2.51-3.77-3.77-.36-.41-.32-1.04.09-1.4.37-.33.94-.33,1.31,0l3.09,3.09c1.03-1.03,2.06-2.06,3.09-3.09.39-.38,1.01-.38,1.4,0" fill="#fff" fill-rule="evenodd" stroke-width="0"/><path id="f" d="m15.62,0c8.63,0,15.62,6.99,15.63,15.62,0,8.63-6.99,15.62-15.62,15.63C7,31.25,0,24.25,0,15.63,0,11.48,1.65,7.51,4.58,4.58,7.5,1.64,11.48,0,15.62,0m9.64,5.98c-5.33-5.32-13.96-5.32-19.28.01-5.32,5.33-5.32,13.96.01,19.28,5.33,5.32,13.96,5.32,19.28-.01,2.55-2.56,3.99-6.02,3.99-9.64,0-3.62-1.44-7.09-4-9.64" fill="#fff" fill-rule="evenodd" stroke-width="0"/></g></svg>