<?xml version="1.0" encoding="UTF-8"?><svg id="a" xmlns="http://www.w3.org/2000/svg" width="199" height="100.73" xmlns:xlink="http://www.w3.org/1999/xlink" viewBox="0 0 199 100.73"><defs><linearGradient id="b" x1="87.37" y1="3.98" x2="64.31" y2="35.35" gradientUnits="userSpaceOnUse"><stop offset="0" stop-color="#2771b7"/><stop offset=".51" stop-color="#539dd1" stop-opacity=".58"/><stop offset="1" stop-color="#7bc4e9" stop-opacity=".2"/></linearGradient><linearGradient id="c" x1="66.32" y1="27.81" x2="123.01" y2="12.67" gradientUnits="userSpaceOnUse"><stop offset=".26" stop-color="#53c0ea"/><stop offset=".35" stop-color="#53c0e9" stop-opacity=".98"/><stop offset=".44" stop-color="#56c0e9" stop-opacity=".93"/><stop offset=".54" stop-color="#5ac0e9" stop-opacity=".85"/><stop offset=".63" stop-color="#60c1e9" stop-opacity=".73"/><stop offset=".72" stop-color="#68c2e9" stop-opacity=".58"/><stop offset=".81" stop-color="#71c3e9" stop-opacity=".39"/><stop offset=".89" stop-color="#7bc4e9" stop-opacity=".2"/></linearGradient></defs><polygon points="14.91 72.45 14.91 66.55 12.78 66.55 12.78 72.45 10.84 72.45 10.84 74.47 12.78 74.47 12.78 90.84 14.91 90.84 14.91 74.47 17.99 74.47 17.99 72.45 14.91 72.45" fill="#bbbfc3" stroke-width="0"/><path d="m32.37,73.25c-.95-1.23-2.49-1.85-4.58-1.85-1.18,0-2.24.29-3.17.87-.76.47-1.4,1.09-1.91,1.84v-10.56h-2.13v27.29h2.13v-10.17c0-4.88,1.61-7.25,4.93-7.25,1.45,0,2.48.4,3.09,1.17.61.8.93,2.19.93,4.13v12.11h2.13v-12.07c0-2.45-.48-4.3-1.41-5.51Z" fill="#bbbfc3" stroke-width="0"/><path d="m54.63,81.61c0-2.75-.81-5.06-2.39-6.84-1.59-1.79-3.7-2.7-6.27-2.7-1.61,0-3.1.41-4.45,1.23-1.35.82-2.41,1.95-3.16,3.37-.75,1.42-1.13,3.01-1.13,4.74s.38,3.37,1.13,4.8c.75,1.44,1.81,2.58,3.14,3.39,1.33.82,2.84,1.23,4.47,1.23,1.81,0,3.41-.43,4.77-1.27,1.36-.84,2.46-2.05,3.29-3.6l.1-.18-1.81-1.05-.1.19c-.66,1.26-1.53,2.23-2.57,2.89-1.04.66-2.2.99-3.45.99-2.01,0-3.67-.66-4.93-1.97-1.26-1.31-1.9-3-1.9-5.01l15.26-.02v-.21Zm-2.17-1.81h-13.07c.11-.92.45-1.82,1.03-2.68.63-.93,1.45-1.68,2.44-2.22.99-.54,2.04-.81,3.12-.81,1.64,0,3.09.57,4.33,1.7,1.18,1.07,1.91,2.42,2.16,4.01Z" fill="#bbbfc3" stroke-width="0"/><path d="m66.29,72.89c-.68-.29-1.34-.44-1.95-.44-1.61,0-2.84.72-3.67,2.15v-2.15h-2.13v18.38h2.13v-9.92c0-2.41.28-4.12.83-5.07.53-.93,1.38-1.38,2.58-1.38.37,0,.74.11,1.11.32l.18.1,1.14-1.91-.22-.09Z" fill="#bbbfc3" stroke-width="0"/><path d="m82.6,72.45v2.71c-.69-.89-1.58-1.61-2.64-2.15-1.23-.62-2.57-.94-4-.94-2.61,0-4.76.88-6.38,2.62-1.62,1.73-2.43,3.97-2.43,6.65,0,1.78.38,3.42,1.13,4.87.75,1.46,1.81,2.61,3.16,3.41,1.35.8,2.89,1.21,4.6,1.21,1.42,0,2.78-.33,4.02-1,1.06-.56,1.91-1.29,2.54-2.17v2.78h2.13v-18h-2.13Zm-10.03,2.6c1-.63,2.1-.96,3.27-.96,1.99,0,3.64.66,4.93,1.97,1.29,1.31,1.94,3.02,1.94,5.09,0,2.27-.63,4.14-1.87,5.55-1.23,1.4-2.86,2.12-4.85,2.12-1.25,0-2.39-.33-3.41-.98-1.02-.65-1.83-1.56-2.42-2.7-.59-1.14-.89-2.42-.89-3.8,0-1.28.3-2.5.89-3.63.59-1.13,1.4-2.02,2.4-2.66Z" fill="#bbbfc3" stroke-width="0"/><path d="m105.99,76.74c-.74-1.46-1.8-2.62-3.16-3.43-1.36-.82-2.91-1.23-4.62-1.23-1.4,0-2.75.33-4.02.99-1.08.56-1.93,1.28-2.55,2.15v-2.77h-2.13v28.28h2.13v-12.97c.67.88,1.54,1.6,2.59,2.14,1.22.62,2.58.94,4.05.94,1.7,0,3.25-.39,4.6-1.17,1.35-.78,2.4-1.89,3.13-3.3.72-1.41,1.09-3.01,1.09-4.76s-.37-3.41-1.11-4.87Zm-1.03,4.91c0,2.02-.64,3.74-1.9,5.11-1.26,1.37-2.85,2.06-4.74,2.06-1.99,0-3.63-.65-4.89-1.94-1.26-1.28-1.9-2.98-1.9-5.05,0-2.3.64-4.18,1.89-5.61,1.25-1.42,2.86-2.14,4.79-2.14,1.27,0,2.44.33,3.48.99,1.04.66,1.85,1.57,2.42,2.71.57,1.14.85,2.44.85,3.85Z" fill="#bbbfc3" stroke-width="0"/><path d="m126.7,81.61c0-2.76-.81-5.06-2.39-6.84-1.59-1.79-3.7-2.7-6.27-2.7-1.6,0-3.1.41-4.45,1.23-1.35.81-2.41,1.95-3.16,3.37-.75,1.42-1.13,3.01-1.13,4.74s.38,3.37,1.13,4.8c.75,1.44,1.81,2.58,3.14,3.39,1.33.82,2.84,1.23,4.47,1.23,1.81,0,3.41-.43,4.77-1.27,1.36-.84,2.46-2.05,3.29-3.6l.1-.18-1.81-1.05-.1.19c-.66,1.26-1.53,2.23-2.57,2.89-1.04.66-2.2.99-3.45.99-2.01,0-3.67-.66-4.93-1.97-1.26-1.31-1.9-3-1.9-5.01l15.26-.02v-.21Zm-2.17-1.81h-13.07c.11-.92.45-1.82,1.03-2.68.62-.93,1.44-1.68,2.44-2.22.99-.54,2.04-.81,3.12-.81,1.64,0,3.09.57,4.33,1.7,1.18,1.07,1.91,2.42,2.16,4.01Z" fill="#bbbfc3" stroke-width="0"/><path d="m141.27,72.45v10.37c0,2.25-.35,3.83-1.04,4.7-.68.86-1.81,1.29-3.36,1.29-1.12,0-1.99-.21-2.6-.63-.61-.42-1.06-1.01-1.35-1.77-.29-.77-.44-2.03-.44-3.75v-10.22h-2.13v11.02c0,1.27.07,2.2.21,2.84.14.64.38,1.24.71,1.79.33.56.8,1.05,1.39,1.45.58.4,1.24.72,1.94.94.7.22,1.47.33,2.27.33,1.38,0,2.62-.32,3.7-.94,1.09-.63,1.84-1.43,2.24-2.38.21-.47.36-.97.45-1.5.09-.52.14-1.37.14-2.55v-11.02h-2.13Z" fill="#bbbfc3" stroke-width="0"/><polygon points="151.09 72.45 151.09 66.55 148.96 66.55 148.96 72.45 147.02 72.45 147.02 74.47 148.96 74.47 148.96 90.84 151.09 90.84 151.09 74.47 154.17 74.47 154.17 72.45 151.09 72.45" fill="#bbbfc3" stroke-width="0"/><rect x="157.6" y="72.45" width="2.13" height="18.38" fill="#bbbfc3" stroke-width="0"/><path d="m159.75,66.96c-.26-.26-.58-.39-.95-.39s-.69.13-.95.39c-.26.26-.39.58-.39.95s.13.69.39.95c.26.26.58.39.95.39s.69-.13.95-.39c.26-.26.39-.58.39-.95s-.13-.69-.39-.95Z" fill="#bbbfc3" stroke-width="0"/><path d="m178.53,85.73c-.89,1.04-1.89,1.82-2.97,2.32-1.08.5-2.21.76-3.34.76-1.22,0-2.39-.34-3.47-1-1.08-.66-1.95-1.58-2.59-2.72-.64-1.14-.96-2.38-.96-3.68s.32-2.5.96-3.65c.64-1.14,1.51-2.05,2.59-2.7,1.08-.65,2.26-.98,3.51-.98,2.29,0,4.32.94,6.05,2.79l.36.39v-2.92l-.08-.06c-1.78-1.47-3.89-2.22-6.26-2.22-1.68,0-3.25.41-4.67,1.23-1.42.81-2.56,1.95-3.37,3.39-.81,1.43-1.23,3.02-1.23,4.73s.41,3.3,1.21,4.74c.8,1.45,1.92,2.6,3.33,3.43,1.41.83,2.99,1.25,4.69,1.25,1.19,0,2.38-.23,3.54-.68,1.16-.45,2.17-1.06,3-1.81l.07-.06v-2.98l-.37.43Z" fill="#bbbfc3" stroke-width="0"/><path d="m192.92,82.84c-.32-.6-.73-1.12-1.23-1.53-.5-.4-1.05-.74-1.65-.98-.59-.24-1.2-.48-1.8-.71-1.09-.4-1.85-.73-2.24-1-.38-.26-.68-.55-.88-.86-.19-.29-.29-.68-.29-1.14,0-.68.28-1.26.84-1.77.57-.51,1.21-.76,1.95-.76.64,0,1.22.17,1.73.5.51.33.9.79,1.16,1.36l.09.2,1.86-.95-.08-.18c-.37-.85-1.02-1.56-1.93-2.11-.9-.55-1.83-.83-2.75-.83-1.42,0-2.62.45-3.57,1.35-.95.9-1.44,2.01-1.44,3.31,0,1.06.36,2,1.06,2.77.7.77,1.94,1.47,3.79,2.15l1.3.5c1.62.58,2.41,1.54,2.41,2.92,0,1.05-.37,1.95-1.1,2.67-.73.72-1.62,1.08-2.65,1.08-2.07,0-3.44-1.12-4.18-3.43l-.06-.2-2.06.66.05.19c.36,1.46,1.11,2.64,2.23,3.5,1.11.86,2.47,1.3,4.03,1.3,1.65,0,3.05-.54,4.18-1.62,1.13-1.08,1.7-2.45,1.7-4.07,0-.92-.16-1.69-.48-2.3Z" fill="#bbbfc3" stroke-width="0"/><path d="m15.33,53.47l-.05.13c-.33.81-.78,1.52-1.34,2.12-.84.9-1.87,1.51-3.07,1.83-1.94.51-3.71.28-5.25-.66-1.55-.94-2.59-2.41-3.1-4.35h0s14.72-3.86,14.72-3.86l-.05-.21c-.69-2.66-2.05-4.68-4.03-6-1.99-1.32-4.25-1.67-6.73-1.02-1.55.4-2.89,1.18-3.98,2.31-1.09,1.13-1.83,2.49-2.2,4.05-.36,1.56-.33,3.19.11,4.86.44,1.69,1.21,3.15,2.3,4.35,1.09,1.2,2.39,2.03,3.89,2.48.78.24,1.58.35,2.39.35.74,0,1.48-.1,2.23-.29,1.74-.46,3.19-1.27,4.29-2.43.93-.98,1.59-2.1,2.02-3.44l.09-.29-2.23.07Zm-.69-6.21l-12.61,3.29c-.13-.91-.02-1.87.32-2.84.37-1.06.97-1.98,1.79-2.75.82-.77,1.76-1.3,2.8-1.57.55-.14,1.09-.21,1.63-.21,1.01,0,2.01.25,2.97.76,1.41.74,2.45,1.86,3.1,3.32Z" fill="#53c0ea" stroke-width="0"/><rect x="20.57" y="25.08" width="2.13" height="34.77" fill="#53c0ea" stroke-width="0"/><polygon points="58.85 41.51 52.76 54.76 46.57 41.51 44.36 41.51 52.73 59.85 61.06 41.51 58.85 41.51" fill="#53c0ea" stroke-width="0"/><path d="m77.34,41.51v2.7c-.69-.89-1.57-1.61-2.63-2.14-1.23-.62-2.57-.93-3.99-.93-2.6,0-4.74.88-6.36,2.61-1.61,1.73-2.43,3.96-2.43,6.63,0,1.77.38,3.41,1.12,4.86.75,1.46,1.81,2.61,3.15,3.41,1.34.8,2.89,1.21,4.59,1.21,1.42,0,2.77-.33,4.01-.99,1.05-.56,1.9-1.28,2.53-2.15v3.15h2.13v-18.34h-2.13Zm.11,8.67c0,2.26-.63,4.13-1.86,5.53-1.23,1.4-2.85,2.11-4.83,2.11-1.24,0-2.39-.33-3.4-.97-1.01-.65-1.82-1.55-2.41-2.69-.59-1.14-.89-2.42-.89-3.79,0-1.28.3-2.49.89-3.62.59-1.12,1.39-2.02,2.39-2.65,1-.63,2.1-.95,3.26-.95,1.98,0,3.63.66,4.92,1.97,1.28,1.31,1.93,3.01,1.93,5.07Z" fill="#53c0ea" stroke-width="0"/><path d="m91.77,41.57c-.68-.29-1.34-.43-1.94-.43-1.6,0-2.83.72-3.66,2.13v-1.75h-2.13v18.34h2.13v-10.27c0-2.41.28-4.11.83-5.06.53-.92,1.37-1.37,2.57-1.37.37,0,.74.11,1.11.31l.18.1,1.14-1.9-.23-.1Z" fill="#53c0ea" stroke-width="0"/><path d="m41.04,53.47l-.05.13c-.33.81-.78,1.52-1.34,2.12-.84.9-1.87,1.51-3.07,1.83-1.94.51-3.71.28-5.25-.66-1.55-.94-2.59-2.41-3.1-4.35h0s14.72-3.86,14.72-3.86l-.05-.21c-.69-2.66-2.05-4.68-4.03-6-1.99-1.32-4.25-1.67-6.73-1.02-1.55.4-2.89,1.18-3.98,2.31-1.09,1.13-1.83,2.49-2.2,4.05-.36,1.56-.33,3.19.11,4.86.44,1.69,1.21,3.15,2.3,4.35,1.09,1.2,2.39,2.03,3.89,2.48.78.24,1.58.35,2.39.35.74,0,1.48-.1,2.23-.29,1.75-.46,3.19-1.27,4.29-2.43.93-.98,1.59-2.1,2.02-3.44l.09-.29-2.23.07Zm-.69-6.21l-12.61,3.29c-.13-.91-.02-1.87.32-2.84.37-1.06.97-1.98,1.79-2.75.82-.77,1.76-1.3,2.8-1.57.55-.14,1.09-.21,1.63-.21,1.01,0,2.01.25,2.97.76,1.41.74,2.45,1.85,3.09,3.32Z" fill="#53c0ea" stroke-width="0"/><path d="m78.44,0s4.12,9.79-3.51,18.77c-2.7,3.18-6.8,7.09-13.23,8.76,15.03-2.8,18.54-5.49,27.02-9.26.22-.64.4-1.4.48-2.25.38-3.85-1.22-9.68-10.76-16.03Z" fill="url(#b)" stroke-width="0"/><path d="m94.5,15.89c-2.21.84-4.09,1.63-5.78,2.38-8.48,3.76-11.99,6.46-27.02,9.26-.64.12-1.3.24-1.98.36,0,0,5.43,4.11,21.86.4,16.42-3.71,20.53-11.26,31.16-15.11-8.46-.05-13.59.94-18.24,2.71Z" fill="url(#c)" stroke-width="0"/><path d="m195.54,72.13v.47h-.83v2.18h-.58v-2.18h-.83v-.47h2.24Zm3.46,0v2.65h-.56v-2.18l-.87,2.18h-.28l-.84-2.18v2.18h-.56v-2.65h.84l.69,1.7.72-1.7h.84Z" fill="#bbbfc3" stroke-width="0"/></svg>