<?xml version="1.0" encoding="UTF-8"?><svg id="a" xmlns="http://www.w3.org/2000/svg" width="1275.41" height="997.3" xmlns:xlink="http://www.w3.org/1999/xlink" viewBox="0 0 1275.41 997.3"><defs><linearGradient id="b" x1="381.4" y1="754.39" x2="381.91" y2="754.87" gradientTransform="translate(-419846.46 831468.75) scale(1101.96 -1101.11)" gradientUnits="userSpaceOnUse"><stop offset="0" stop-color="#467ab8"/><stop offset=".5" stop-color="#16a8bc"/><stop offset="1" stop-color="#6dcee5"/></linearGradient><linearGradient id="d" x1="0" y1="780.29" x2="1275.41" y2="780.29" gradientUnits="userSpaceOnUse"><stop offset="0" stop-color="#678ec3"/><stop offset=".5" stop-color="#32a9c7"/><stop offset="1" stop-color="#21bac7"/></linearGradient></defs><path id="c" d="m780.81,0c25.68,143.19,29.44,394.89-172.49,632.51-108.03,127.12-272.11,283.72-528.97,350.45,600.95-111.79,741.47-219.68,1080.55-370.24,9.82-29.13,16.31-59.28,19.36-89.87,12.97-129.61-30.64-315.56-272.98-522.85h-125.46Z" fill="url(#b)" isolation="isolate" opacity=".75" stroke-width="0"/><path id="e" d="m1275.41,563.27c-41.27,17-79.51,33.47-115.51,49.46-339.08,150.55-479.6,258.45-1080.55,370.24-25.62,4.77-52,9.56-79.35,14.34h938.23c130.5-33.07,240.6-71.75,337.19-114.59v-319.45Z" fill="url(#d)" isolation="isolate" opacity=".66" stroke-width="0"/></svg>