<svg xmlns="http://www.w3.org/2000/svg" xmlns:xlink="http://www.w3.org/1999/xlink" width="30.586" height="32.847" viewBox="0 0 30.586 32.847">
  <defs>
    <clipPath id="clip-path">
      <rect id="Rectangle_528" data-name="Rectangle 528" width="30.586" height="32.847" fill="#8d8d8d"/>
    </clipPath>
  </defs>
  <g id="Event_Cal-Icon" data-name="Event Cal-Icon" transform="translate(-116 0.005)">
    <g id="Group_2143" data-name="Group 2143" transform="translate(116 -0.005)" clip-path="url(#clip-path)">
      <path id="Path_4755" data-name="Path 4755" d="M15.289,32.834c-4.3,0-8.606-.012-12.909.008A2.392,2.392,0,0,1,0,30.452Q.012,18.23,0,6.008A2.336,2.336,0,0,1,1.94,3.65,2.327,2.327,0,0,1,2.4,3.625H5.872c.255,0,.256,0,.257-.254,0-.668,0-1.337,0-2.005A1.277,1.277,0,0,1,6.6.269,1.17,1.17,0,0,1,7.893.129a1.16,1.16,0,0,1,.685,1.087c.011.726.009,1.451,0,2.177,0,.187.058.235.24.235q6.206-.007,12.413,0c.2,0,.244-.065.242-.252-.01-.713-.005-1.426,0-2.139A1.216,1.216,0,1,1,23.9,1.23c0,.713,0,1.426,0,2.139,0,.255,0,.255.249.255q2.034,0,4.068,0a2.318,2.318,0,0,1,2.346,1.963,2.088,2.088,0,0,1,.021.361q0,12.279,0,24.558a2.312,2.312,0,0,1-2.33,2.327q-6.483,0-12.967,0M15.3,12.358H2.124c-.259,0-.26,0-.26.245q0,8.383,0,16.766a2.046,2.046,0,0,0,.065.548A1.594,1.594,0,0,0,3.55,31.087H27.305a1.319,1.319,0,0,0,1.42-1.419q0-8.507,0-17.015c0-.3,0-.3-.306-.3H15.3m6.167-7.079A1.8,1.8,0,0,0,20.983,7.3a1.831,1.831,0,0,0,3.482-.267A1.732,1.732,0,0,0,23.9,5.3c0,.442,0,.873,0,1.3a1.216,1.216,0,1,1-2.431,0c0-.432,0-.863,0-1.327m-15.319,0a1.731,1.731,0,0,0-.592,1.648A1.828,1.828,0,1,0,8.724,5.408c-.031-.034-.054-.1-.116-.073-.044.021-.026.08-.026.123,0,.388,0,.776,0,1.164A1.219,1.219,0,0,1,7.343,7.853,1.193,1.193,0,0,1,6.15,6.628c0-.438,0-.877,0-1.345" transform="translate(0 0.005)" fill="#8d8d8d"/>
      <path id="Path_4756" data-name="Path 4756" d="M1035.456,1383.354c.369,0,.738,0,1.108,0a.682.682,0,0,1,.74.7q.021,1.136,0,2.272a.687.687,0,0,1-.753.712q-1.1,0-2.2,0a.668.668,0,0,1-.742-.677q-.036-1.173,0-2.348a.666.666,0,0,1,.737-.662c.369,0,.738,0,1.107,0" transform="translate(-1022.891 -1369.027)" fill="#8d8d8d"/>
      <path id="Path_4757" data-name="Path 4757" d="M1035.532,2456.329c.369,0,.738,0,1.107,0a.667.667,0,0,1,.734.683c.018.77.017,1.54,0,2.31a.677.677,0,0,1-.716.691c-.751.01-1.5.009-2.253,0a.662.662,0,0,1-.718-.664q-.038-1.182,0-2.366a.652.652,0,0,1,.72-.654c.375,0,.751,0,1.127,0" transform="translate(-1022.963 -2430.89)" fill="#8d8d8d"/>
      <path id="Path_4758" data-name="Path 4758" d="M1035.386,1911.321c-.369,0-.738,0-1.107,0a.665.665,0,0,1-.731-.684q-.028-1.144,0-2.29a.693.693,0,0,1,.758-.711q1.088-.007,2.176,0a.71.71,0,0,1,.766.765q.008,1.078,0,2.157a.694.694,0,0,1-.773.763h-1.088" transform="translate(-1022.831 -1887.877)" fill="#8d8d8d"/>
      <path id="Path_4759" data-name="Path 4759" d="M2091.4,1912.448c0-.382,0-.763,0-1.145a.667.667,0,0,1,.682-.695q1.164-.01,2.329,0a.664.664,0,0,1,.674.667q.014,1.174,0,2.348a.674.674,0,0,1-.675.668q-1.165.012-2.329,0a.674.674,0,0,1-.681-.7c0-.013,0-.025,0-.038v-1.107" transform="translate(-2069.736 -1890.817)" fill="#8d8d8d"/>
      <path id="Path_4760" data-name="Path 4760" d="M2095.031,2458.137c0,.382,0,.763,0,1.145a.659.659,0,0,1-.678.7q-1.155.012-2.31,0a.678.678,0,0,1-.7-.69c-.011-.77-.012-1.54,0-2.309a.68.68,0,0,1,.718-.685q1.136,0,2.271,0a.661.661,0,0,1,.693.7c0,.382,0,.764,0,1.145" transform="translate(-2069.681 -2430.854)" fill="#8d8d8d"/>
      <path id="Path_4761" data-name="Path 4761" d="M509.483,1912.531c0,.382,0,.763,0,1.145a.656.656,0,0,1-.669.686q-1.164.013-2.329,0a.673.673,0,0,1-.685-.68c-.012-.776-.013-1.553,0-2.329a.675.675,0,0,1,.708-.675q1.145-.005,2.29,0a.658.658,0,0,1,.683.688c0,.388,0,.776,0,1.164" transform="translate(-500.552 -1890.888)" fill="#8d8d8d"/>
      <path id="Path_4762" data-name="Path 4762" d="M1563.744,1385.11c0-.382,0-.763,0-1.145a.662.662,0,0,1,.7-.693q1.135-.005,2.271,0a.68.68,0,0,1,.714.689q.016,1.154,0,2.309a.677.677,0,0,1-.7.686q-1.145.011-2.29,0a.671.671,0,0,1-.694-.7c0-.013,0-.026,0-.038q0-.553,0-1.107" transform="translate(-1547.549 -1368.944)" fill="#8d8d8d"/>
      <path id="Path_4763" data-name="Path 4763" d="M2091.4,1385.071c0-.382,0-.764,0-1.145a.67.67,0,0,1,.7-.7q1.146-.007,2.291,0a.674.674,0,0,1,.7.7q.009,1.135,0,2.271a.689.689,0,0,1-.711.712q-1.136.007-2.271,0a.678.678,0,0,1-.7-.715c0-.191,0-.382,0-.573v-.553" transform="translate(-2069.738 -1368.898)" fill="#8d8d8d"/>
      <path id="Path_4764" data-name="Path 4764" d="M1563.744,1912.5c0-.375,0-.751,0-1.126a.662.662,0,0,1,.69-.7q1.145-.006,2.29,0a.676.676,0,0,1,.7.68q.018,1.164,0,2.328a.677.677,0,0,1-.708.677q-1.145.009-2.29,0a.665.665,0,0,1-.684-.692c0-.388,0-.776,0-1.164" transform="translate(-1547.548 -1890.884)" fill="#8d8d8d"/>
      <path id="Path_4765" data-name="Path 4765" d="M507.816,2456.32c.375,0,.751,0,1.126,0a.654.654,0,0,1,.706.7q0,1.136,0,2.271a.668.668,0,0,1-.686.71q-1.145.018-2.29,0a.69.69,0,0,1-.71-.737q-.007-1.107,0-2.214a.691.691,0,0,1,.747-.732c.369,0,.738,0,1.107,0" transform="translate(-500.718 -2430.881)" fill="#8d8d8d"/>
      <path id="Path_4766" data-name="Path 4766" d="M1563.742,2458.112c0-.382,0-.763,0-1.145a.655.655,0,0,1,.7-.692q1.135-.006,2.271,0a.676.676,0,0,1,.716.682c.012.769.011,1.539,0,2.309a.677.677,0,0,1-.7.69q-1.154.02-2.309,0a.674.674,0,0,1-.68-.718c0-.375,0-.751,0-1.126" transform="translate(-1547.547 -2430.835)" fill="#8d8d8d"/>
    </g>
  </g>
</svg>
