<?xml version="1.0" encoding="UTF-8"?><svg id="a" xmlns="http://www.w3.org/2000/svg" xmlns:xlink="http://www.w3.org/1999/xlink" viewBox="0 0 602.78 675"><defs><clipPath id="b"><rect width="602.78" height="675" fill="none" stroke-width="0"/></clipPath><linearGradient id="c" x1="703.34" y1="-923.33" x2="703.57" y2="-922.68" gradientTransform="translate(-658779 -863766.52) scale(936.89 -936.18)" gradientUnits="userSpaceOnUse"><stop offset="0" stop-color="#b3b3b4"/><stop offset="1" stop-color="#fff"/></linearGradient></defs><g clip-path="url(#b)"><rect width="602.78" height="675" fill="none" stroke-width="0"/><rect y=".5" width="602.28" height="674" fill="none" stroke="#707070"/><path id="d" d="m277.74-114.5s140.14,332.79-119.42,638.22c-91.85,108.08-231.35,241.22-449.73,297.96,510.93-95.04,630.4-186.78,918.69-314.78,8.35-24.77,13.87-50.4,16.46-76.41,13.09-130.78-41.58-329.02-366-544.99Z" fill="url(#c)" isolation="isolate" opacity=".75" stroke-width="0"/><path id="e" d="m823.79,425.89c-75.14,28.65-139.15,55.54-196.5,81.01-288.29,128-407.76,219.73-918.69,314.78-21.79,4.05-44.21,8.11-67.46,12.18,0,0,184.79,139.82,743.17,13.63,558.37-126.19,698.07-382.83,1059.56-513.85-287.63-1.58-462.26,32.08-620.07,92.26Z" fill="#fff" isolation="isolate" opacity=".66" stroke-width="0"/></g></svg>