<?xml version="1.0" encoding="UTF-8"?><svg id="a" xmlns="http://www.w3.org/2000/svg" width="21.5" height="21.5" xmlns:xlink="http://www.w3.org/1999/xlink" viewBox="0 0 21.5 21.5"><defs><clipPath id="b"><rect width="21.5" height="21.5" fill="none" stroke-width="0"/></clipPath></defs><g clip-path="url(#b)"><g id="c"><path id="d" d="m16.75,21.5H4.75C2.12,21.5,0,19.38,0,16.75c0,0,0,0,0,0V4.75C0,2.12,2.12,0,4.75,0h12.01c2.62,0,4.75,2.12,4.75,4.74h0v12.01c0,2.62-2.12,4.75-4.74,4.75h0" stroke-width="0"/><path id="e" d="m17.84,17.23l-5.71-7.61,4.98-5.38s.05-.12,0-.17c-.02-.02-.05-.04-.09-.03h-.89c-.07,0-.13.03-.18.08l-4.39,4.75-3.54-4.73c-.04-.06-.12-.1-.19-.1h-3.95c-.06,0-.12.05-.12.12,0,.02,0,.05.02.07l5.4,7.21-5.36,5.79s-.05.12,0,.17c.02.02.05.04.09.03h.89c.07,0,.13-.03.18-.08l4.77-5.15,3.85,5.13c.04.06.12.1.19.1h3.95c.06,0,.12-.05.12-.12,0-.02,0-.05-.02-.07M7.47,5l8.59,11.46h-1.9L5.56,5h1.9Z" fill="#fff" stroke-width="0"/></g></g></svg>