<?xml version="1.0" encoding="UTF-8"?><svg id="a" xmlns="http://www.w3.org/2000/svg" width="21.5" height="20.81" viewBox="0 0 21.5 20.81"><path id="b" d="m21.5,1.89v17.02c-.02,1.06-.89,1.91-1.95,1.89,0,0,0,0,0,0H1.95C.89,20.83.02,19.98,0,18.92c0,0,0,0,0,0V1.89C.02.83.89-.02,1.95,0c0,0,0,0,0,0h17.59c1.06-.02,1.94.83,1.96,1.89,0,0,0,0,0,0Zm-14.7,6.15h-2.89v8.98h2.89v-8.98Zm.2-2.91c-.02-.93-.79-1.66-1.72-1.64-.9.02-1.62.74-1.64,1.64.02.93.79,1.66,1.72,1.64.9-.02,1.62-.74,1.64-1.64Zm10.59,6.96c0-2.42-.54-4.28-3.46-4.28-1.1-.05-2.15.51-2.73,1.45h-.04v-1.23h-2.77v8.98h2.88v-4.44c0-1.17.23-2.3,1.73-2.3s1.5,1.34,1.5,2.38v4.37h2.88v-4.93Z" stroke-width="0"/></svg>