<?xml version="1.0" encoding="UTF-8"?><svg id="a" xmlns="http://www.w3.org/2000/svg" width="253.9" height="253.45" viewBox="0 0 253.9 253.45"><path d="m4.66,84.32h52.43v168.63H4.66V84.32ZM30.87.5c16.76,0,30.37,13.62,30.37,30.4s-13.62,30.38-30.37,30.38S.5,47.67.5,30.9,14.08.5,30.87.5" fill="#fff" stroke="#fff" stroke-miterlimit="10"/><path d="m89.96,84.32h50.27v23.06h.72c7-13.26,24.1-27.23,49.59-27.23,53.07,0,62.87,34.91,62.87,80.32v92.49h-52.39v-82c0-19.56-.34-44.71-27.23-44.71s-31.44,21.32-31.44,43.31v83.41h-52.39V84.32Z" fill="#fff" stroke="#fff" stroke-miterlimit="10"/></svg>