<?xml version="1.0" encoding="UTF-8"?><svg id="b" xmlns="http://www.w3.org/2000/svg" width="254" height="253.5" viewBox="0 0 254 253.5"><g id="c"><path d="m4.7,84.3h52.4v168.6H4.7V84.3ZM30.9.5c16.8,0,30.4,13.6,30.4,30.4s-13.6,30.4-30.4,30.4S.5,47.6.5,30.9,14.1.5,30.9.5" fill="#f4c55c" stroke="#f4c55c" stroke-miterlimit="10"/><path d="m90,84.3h50.3v23.1h.7c7-13.3,24.1-27.2,49.6-27.2,53.1,0,62.9,34.9,62.9,80.3v92.5h-52.4v-82c0-19.6-.3-44.7-27.2-44.7s-31.4,21.3-31.4,43.3v83.4h-52.5V84.3Z" fill="#f4c55c" stroke="#f4c55c" stroke-miterlimit="10"/></g></svg>