<?xml version="1.0" encoding="UTF-8"?><svg id="a" xmlns="http://www.w3.org/2000/svg" width="50" height="50" xmlns:xlink="http://www.w3.org/1999/xlink" viewBox="0 0 50 50"><defs><clipPath id="d"><rect x="12.43" y="9.42" width="25.71" height="31.85" fill="none" stroke-width="0"/></clipPath></defs><g id="b"><g id="c"><circle cx="25" cy="25" r="25" fill="#2b71b7" stroke-width="0"/><circle cx="25" cy="25" r="24" fill="none" stroke="#fff" stroke-width="2"/></g><g clip-path="url(#d)"><g id="e"><path id="f" d="m25.28,9.42c-7.1,0-12.86,5.76-12.86,12.86,0,0,0,0,0,0,0,7.1,5.08,13.25,12.86,18.99,7.77-5.74,12.86-11.89,12.86-18.99,0-7.1-5.75-12.86-12.85-12.86,0,0,0,0,0,0m0,20.86c-4.23,0-7.65-3.43-7.65-7.65s3.43-7.65,7.65-7.65,7.65,3.43,7.65,7.65-3.43,7.65-7.65,7.65h0" fill="#fff" stroke-width="0"/></g></g></g></svg>